<svg xmlns="http://www.w3.org/2000/svg" width="64" height="64" viewBox="0 0 64 64">
  <path id="Clock" d="M389,847a32,32,0,1,1,32,32A32,32,0,0,1,389,847Zm2,0a30,30,0,1,0,30-30A30,30,0,0,0,391,847Zm2,0a28,28,0,1,1,28,28A28,28,0,0,1,393,847Zm29,23v2.974a25.892,25.892,0,0,0,16.66-6.9l-2.1-2.1a1,1,0,0,1,1.415-1.416l2.1,2.105a25.889,25.889,0,0,0,6.9-16.661H444a1,1,0,1,1,0-2h2.974a25.892,25.892,0,0,0-6.9-16.661l-2.105,2.1a1,1,0,0,1-1.414-1.414l2.1-2.1a25.89,25.89,0,0,0-16.661-6.9V824a1,1,0,0,1-2,0v-2.974a25.893,25.893,0,0,0-16.661,6.9l2.105,2.1a1,1,0,1,1-1.415,1.414l-2.1-2.1a25.893,25.893,0,0,0-6.9,16.661H398a1,1,0,1,1,0,2h-2.974a25.9,25.9,0,0,0,6.9,16.66l2.1-2.1a1,1,0,0,1,1.415,1.414l-2.1,2.1a25.9,25.9,0,0,0,16.661,6.9V870a1,1,0,1,1,2,0Zm8.191-9.565-8.505-8.506A4.973,4.973,0,0,1,418,843.022V829a3,3,0,0,1,6,0v14.022a4.708,4.708,0,0,1,1.931,4.667l8.5,8.5a3,3,0,0,1-4.242,4.244Zm-6.439-9.267,7.853,7.853a1,1,0,0,0,1.414-1.416l-7.852-7.853A5.008,5.008,0,0,1,423.754,851.169ZM418,847a3,3,0,1,0,3-3A3,3,0,0,0,418,847Zm4-4.9V829a1,1,0,1,0-2,0v13.1a5.053,5.053,0,0,1,2,0Zm-2,4.9a1,1,0,1,1,1,1A1,1,0,0,1,420,847Z" transform="translate(-389 -815)" fill="#ba271f"/>
</svg>
