<svg xmlns="http://www.w3.org/2000/svg" width="64" height="64" viewBox="0 0 64 64">
  <path id="Globe" d="M420,1061a32,32,0,1,0,32,32A32,32,0,0,0,420,1061Zm17.972,31a39.8,39.8,0,0,0-3.613-15.667,39.913,39.913,0,0,0,7.515-3.853,29.877,29.877,0,0,1,8.1,19.521Zm-16.639,30.966c-.11.005-.222.005-.333.009v-11.939a37.961,37.961,0,0,1,9.606,1.47A38.205,38.205,0,0,1,421.333,1122.966Zm11.216-9.825a37.9,37.9,0,0,1,6.523,3.017,29.869,29.869,0,0,1-14.178,6.438A40.192,40.192,0,0,0,432.549,1113.141Zm-23.155-.636a37.928,37.928,0,0,1,9.606-1.47v11.939c-.111,0-.223,0-.333-.009A38.208,38.208,0,0,1,409.394,1112.5Zm5.712,10.091a29.864,29.864,0,0,1-14.178-6.439,37.814,37.814,0,0,1,6.524-3.017A40.161,40.161,0,0,0,415.105,1122.6Zm-25.08-30.6a29.877,29.877,0,0,1,8.1-19.521,39.909,39.909,0,0,0,7.515,3.853A39.8,39.8,0,0,0,402.028,1092Zm41.545-16.8a37.914,37.914,0,0,1-10.57,1.765v-13.936c.111,0,.223,0,.333.009A38.176,38.176,0,0,1,431.57,1075.2Zm-6.676-11.792a29.888,29.888,0,0,1,15.521,7.622,37.764,37.764,0,0,1-6.944,3.5A40.127,40.127,0,0,0,424.894,1063.4Zm-5.894-.379v13.936a37.914,37.914,0,0,1-10.57-1.765,38.175,38.175,0,0,1,10.237-12.162C418.777,1063.03,418.889,1063.03,419,1063.026Zm-12.471,11.5a37.76,37.76,0,0,1-6.944-3.5,29.888,29.888,0,0,1,15.521-7.622A40.126,40.126,0,0,0,406.529,1074.525Zm1,2.484A39.867,39.867,0,0,0,419,1078.981V1092H404.031A37.766,37.766,0,0,1,407.532,1077.009ZM419,1094v15.036a39.879,39.879,0,0,0-10.615,1.69A37.762,37.762,0,0,1,404.031,1094Zm2,15.036V1094h14.969a37.766,37.766,0,0,1-4.354,16.725A39.878,39.878,0,0,0,421,1109.036ZM421,1092v-13.019a39.866,39.866,0,0,0,11.468-1.972,37.771,37.771,0,0,1,3.5,14.991Zm-30.975,2h12a39.781,39.781,0,0,0,4.447,17.369,39.877,39.877,0,0,0-7.109,3.4A29.9,29.9,0,0,1,390.025,1094Zm50.608,20.766a39.872,39.872,0,0,0-7.109-3.4A39.78,39.78,0,0,0,437.972,1094h12A29.9,29.9,0,0,1,440.634,1114.766Z" transform="translate(-388 -1061)" fill="#ba271f"/>
</svg>
