<svg xmlns="http://www.w3.org/2000/svg" width="40" height="64" viewBox="0 0 40 64">
  <path id="iPhone" d="M1168,880a4,4,0,0,1-4-4V820a4,4,0,0,1,4-4h32a4,4,0,0,1,4,4v56a4,4,0,0,1-4,4Zm-2-4a2,2,0,0,0,2,2h32a2,2,0,0,0,2-2v-8h-36Zm0-10h36V826h-36Zm0-46v4h36v-4a2,2,0,0,0-2-2h-32A2,2,0,0,0,1166,820Zm15,53a3,3,0,1,1,3,3A3,3,0,0,1,1181,873Zm2,0a1,1,0,1,0,1-1A1,1,0,0,0,1183,873Zm5-52a1,1,0,1,1,1,1A1,1,0,0,1,1188,821Zm-9,1a1,1,0,0,1,0-2h6a1,1,0,1,1,0,2Z" transform="translate(-1164 -816)" fill="#ba271f"/>
</svg>
