<svg xmlns="http://www.w3.org/2000/svg" width="64.001" height="64" viewBox="0 0 64.001 64">
  <path id="Man" d="M1151,1124a4,4,0,0,1-4-4v-8a5.983,5.983,0,0,1,1.758-4.242l-.014-.013a47.853,47.853,0,0,1,20.492-9.722A13.952,13.952,0,0,1,1165,1088a3,3,0,0,1-3-3v-2a2.984,2.984,0,0,1,1-2.222V1072a12,12,0,0,1,12-12h8a12,12,0,0,1,12,12v8.778a2.984,2.984,0,0,1,1,2.222v2a3,3,0,0,1-3,3,13.954,13.954,0,0,1-4.234,10.022,47.844,47.844,0,0,1,20.491,9.722l-.014.013A5.98,5.98,0,0,1,1211,1112v8a4,4,0,0,1-4,4Zm-.833-14.832,0,0A3.984,3.984,0,0,0,1149,1112v8a2,2,0,0,0,2,2h56a2,2,0,0,0,2-2v-8a3.983,3.983,0,0,0-1.172-2.828l0,0a45.933,45.933,0,0,0-14.089-7.727,19.91,19.91,0,0,1-29.529.014A45.933,45.933,0,0,0,1150.168,1109.168Zm16.184-8.393a17.854,17.854,0,0,0,25.255-.014,46,46,0,0,0-4.891-1.084,13.977,13.977,0,0,1-15.43,0A45.861,45.861,0,0,0,1166.351,1100.775ZM1164,1083v2a1,1,0,0,0,1,1h1a1,1,0,0,1,1,1v1a12,12,0,1,0,24,0v-1a1,1,0,0,1,1-1h1a1,1,0,0,0,1-1v-2a1,1,0,0,0-1-1h-1a1,1,0,0,1-1-1v-2a4,4,0,0,0-4-4h-6a6,6,0,0,0-10,0,4,4,0,0,0-4,4v2a1,1,0,0,1-1,1h-1A1,1,0,0,0,1164,1083Zm13-14a4,4,0,0,0,4,4h6a6,6,0,0,1,6,6v-7a10,10,0,0,0-10-10h-8a10,10,0,0,0-10,10v7a6,6,0,0,1,6-6,4,4,0,0,0,4-4,1,1,0,1,1,2,0Zm8.111,12.458A1.276,1.276,0,0,0,1184,1081a1.224,1.224,0,0,0-1.117.467,1.017,1.017,0,0,1-1.345.4.981.981,0,0,1-.439-1.3A3.161,3.161,0,0,1,1184,1079a3.212,3.212,0,0,1,2.888,1.542,1,1,0,0,1-.43,1.346.985.985,0,0,1-.457.112A1,1,0,0,1,1185.111,1081.458Zm-10,0A1.277,1.277,0,0,0,1174,1081a1.221,1.221,0,0,0-1.116.467,1.017,1.017,0,0,1-1.345.4.981.981,0,0,1-.439-1.3A3.161,3.161,0,0,1,1174,1079a3.214,3.214,0,0,1,2.889,1.542,1,1,0,0,1-.431,1.346.978.978,0,0,1-.456.112A1,1,0,0,1,1175.109,1081.458Z" transform="translate(-1147 -1060)" fill="#ba271f"/>
</svg>
